<?xml version="1.0" encoding="UTF-8" standalone="no"?>
<!-- Generator: Adobe Illustrator 27.8.1, SVG Export Plug-In . SVG Version: 6.00 Build 0)  -->

<svg
   version="1.1"
   width="484.22906"
   height="600"
   xml:space="preserve"
   viewBox="0 0 484.22906 599.99999"
   id="svg1"
   xmlns="http://www.w3.org/2000/svg"
   xmlns:svg="http://www.w3.org/2000/svg"><defs
     id="defs2" /><style
     type="text/css"
     id="style1">
	.st0{fill-rule:evenodd;clip-rule:evenodd;fill:#1EBFBF;}
	.st1{fill-rule:evenodd;clip-rule:evenodd;fill:#FFFFFF;}
</style><path
     class="st0"
     d="M 369.47686,0 C 368.84636,0 368.21584,0 367.58535,0 H 228.87389 C 137.45043,5.044052 99.620045,57.376099 88.901425,85.748891 48.549007,207.43667 10.718612,443.87664 5.674559,477.29349 0.630506,510.07983 0,530.25604 0,530.25604 0,538.45263 0.630506,547.91023 2.522026,556.73732 13.871145,588.89315 47.287994,616.00494 121.68777,588.89315 191.674,558.62884 274.27036,520.79844 360.01926,477.92399 394.69712,457.74778 440.7241,419.91739 465.94436,370.10737 476.03247,349.93116 482.96804,327.23292 484.22906,303.90417 484.22906,300.12114 484.22906,296.3381 484.22906,292.55506 483.59856,235.17896 482.96804,175.28083 479.18501,117.27422 479.18501,117.27422 476.03247,80.074341 474.14095,66.833698 472.24943,53.59306 469.7274,48.549007 469.7274,48.549007 457.74778,22.698237 434.41904,9.457598 409.82928,3.152533 397.84965,0.630506 384.60901,0.630506 369.47686,0 Z M 364.4328,122.31828 C 364.4328,116.01321 359.38875,110.96916 352.45318,110.96916 H 346.14811 C 270.48732,110.96916 208.69768,170.86728 208.69768,245.26706 V 307.68721 C 208.69768,346.14812 176.54184,377.67345 136.81992,377.67345 H 130.51486 C 124.20979,377.67345 118.53524,382.7175 118.53524,389.02256 V 430.00549 C 118.53524,436.31056 123.5793,441.35461 130.51486,441.35461 H 136.81992 C 212.48072,441.35461 274.27036,381.45649 274.27036,307.05671 V 244.63656 C 274.27036,206.17565 306.4262,174.65032 346.14811,174.65032 H 352.45318 C 359.38875,174.65032 364.4328,169.60627 364.4328,163.30121 Z"
     id="path1" /><path
     class="st1"
     d="M 364.4328,122.31828 C 364.4328,116.01321 359.38875,110.96916 352.45318,110.96916 H 346.14811 C 270.48732,110.96916 208.69768,170.86728 208.69768,245.26706 V 307.68721 C 208.69768,346.14812 176.54184,377.67345 136.81992,377.67345 H 130.51486 C 124.20979,377.67345 118.53524,382.7175 118.53524,389.02256 V 430.00549 C 118.53524,436.31056 123.5793,441.35461 130.51486,441.35461 H 136.81992 C 212.48072,441.35461 274.27036,381.45649 274.27036,307.05671 V 244.63656 C 274.27036,206.17565 306.4262,174.65032 346.14811,174.65032 H 352.45318 C 359.38875,174.65032 364.4328,169.60627 364.4328,163.30121 Z"
     id="path2" /></svg>
